<svg width="290" height="41" viewBox="0 0 290 41" fill="none" xmlns="http://www.w3.org/2000/svg">
<path d="M97.0734 26.096C95.9641 26.096 94.9561 25.8507 94.0494 25.36C93.1534 24.8587 92.4494 24.176 91.9374 23.312C91.4361 22.448 91.1854 21.4773 91.1854 20.4C91.1854 19.3227 91.4361 18.352 91.9374 17.488C92.4494 16.624 93.1534 15.9467 94.0494 15.456C94.9561 14.9547 95.9641 14.704 97.0734 14.704C98.1828 14.704 99.1801 14.9493 100.065 15.44C100.961 15.9307 101.665 16.6133 102.177 17.488C102.689 18.352 102.945 19.3227 102.945 20.4C102.945 21.4773 102.689 22.4533 102.177 23.328C101.665 24.192 100.961 24.8693 100.065 25.36C99.1801 25.8507 98.1828 26.096 97.0734 26.096ZM97.0734 25.04C97.9588 25.04 98.7588 24.8427 99.4734 24.448C100.188 24.0427 100.748 23.488 101.153 22.784C101.559 22.0693 101.761 21.2747 101.761 20.4C101.761 19.5253 101.559 18.736 101.153 18.032C100.748 17.3173 100.188 16.7627 99.4734 16.368C98.7588 15.9627 97.9588 15.76 97.0734 15.76C96.1881 15.76 95.3828 15.9627 94.6574 16.368C93.9428 16.7627 93.3774 17.3173 92.9614 18.032C92.5561 18.736 92.3534 19.5253 92.3534 20.4C92.3534 21.2747 92.5561 22.0693 92.9614 22.784C93.3774 23.488 93.9428 24.0427 94.6574 24.448C95.3828 24.8427 96.1881 25.04 97.0734 25.04ZM115.659 21.776C115.659 23.088 115.227 24.1173 114.363 24.864C113.499 25.6107 112.277 26.016 110.699 26.08V29.104H109.595V26.096C108.027 26.032 106.811 25.6267 105.947 24.88C105.093 24.1227 104.667 23.088 104.667 21.776C104.667 20.4747 105.093 19.456 105.947 18.72C106.811 17.984 108.027 17.584 109.595 17.52V14.128H110.699V17.52C112.277 17.5947 113.499 18 114.363 18.736C115.227 19.472 115.659 20.4853 115.659 21.776ZM105.787 21.776C105.787 22.7787 106.107 23.5627 106.747 24.128C107.397 24.6933 108.347 25.0133 109.595 25.088V18.528C108.357 18.592 107.413 18.9067 106.763 19.472C106.112 20.0267 105.787 20.7947 105.787 21.776ZM110.699 25.088C111.947 25.024 112.896 24.7093 113.547 24.144C114.208 23.5787 114.539 22.7893 114.539 21.776C114.539 20.784 114.208 20.0107 113.547 19.456C112.896 18.9013 111.947 18.592 110.699 18.528V25.088ZM121.533 26.08C120.723 26.08 119.992 25.8987 119.341 25.536C118.691 25.1627 118.179 24.6507 117.805 24C117.432 23.3493 117.245 22.6133 117.245 21.792C117.245 20.9707 117.432 20.2347 117.805 19.584C118.179 18.9333 118.691 18.4267 119.341 18.064C119.992 17.7013 120.723 17.52 121.533 17.52C122.344 17.52 123.075 17.7013 123.725 18.064C124.376 18.4267 124.883 18.9333 125.245 19.584C125.619 20.2347 125.805 20.9707 125.805 21.792C125.805 22.6133 125.619 23.3493 125.245 24C124.883 24.6507 124.376 25.1627 123.725 25.536C123.075 25.8987 122.344 26.08 121.533 26.08ZM121.533 25.072C122.131 25.072 122.664 24.9387 123.133 24.672C123.613 24.3947 123.987 24.0053 124.253 23.504C124.52 23.0027 124.653 22.432 124.653 21.792C124.653 21.152 124.52 20.5813 124.253 20.08C123.987 19.5787 123.613 19.1947 123.133 18.928C122.664 18.6507 122.131 18.512 121.533 18.512C120.936 18.512 120.397 18.6507 119.917 18.928C119.448 19.1947 119.075 19.5787 118.797 20.08C118.531 20.5813 118.397 21.152 118.397 21.792C118.397 22.432 118.531 23.0027 118.797 23.504C119.075 24.0053 119.448 24.3947 119.917 24.672C120.397 24.9387 120.936 25.072 121.533 25.072ZM132.569 17.52C133.359 17.52 134.073 17.7013 134.713 18.064C135.353 18.416 135.855 18.9173 136.217 19.568C136.58 20.2187 136.761 20.96 136.761 21.792C136.761 22.6347 136.58 23.3813 136.217 24.032C135.855 24.6827 135.353 25.1893 134.713 25.552C134.084 25.904 133.369 26.08 132.569 26.08C131.887 26.08 131.268 25.9413 130.713 25.664C130.169 25.376 129.721 24.96 129.369 24.416V29.104H128.233V17.584H129.321V19.248C129.663 18.6933 130.111 18.2667 130.665 17.968C131.231 17.6693 131.865 17.52 132.569 17.52ZM132.489 25.072C133.076 25.072 133.609 24.9387 134.089 24.672C134.569 24.3947 134.943 24.0053 135.209 23.504C135.487 23.0027 135.625 22.432 135.625 21.792C135.625 21.152 135.487 20.5867 135.209 20.096C134.943 19.5947 134.569 19.2053 134.089 18.928C133.609 18.6507 133.076 18.512 132.489 18.512C131.892 18.512 131.353 18.6507 130.873 18.928C130.404 19.2053 130.031 19.5947 129.753 20.096C129.487 20.5867 129.353 21.152 129.353 21.792C129.353 22.432 129.487 23.0027 129.753 23.504C130.031 24.0053 130.404 24.3947 130.873 24.672C131.353 24.9387 131.892 25.072 132.489 25.072ZM148.61 17.584V26H147.57V19.344L144.162 24.976H143.65L140.242 19.328V26H139.202V17.584H140.354L143.922 23.648L147.554 17.584H148.61ZM151.843 17.584H152.979V24.272L158.595 17.584H159.603V26H158.467V19.312L152.867 26H151.843V17.584ZM168.778 18.592H165.594V26H164.458V18.592H161.274V17.584H168.778V18.592ZM174.037 20.56C175.093 20.5707 175.893 20.8053 176.437 21.264C176.991 21.7227 177.269 22.384 177.269 23.248C177.269 24.144 176.97 24.832 176.373 25.312C175.786 25.792 174.933 26.0267 173.813 26.016L170.421 26V17.584H171.557V20.528L174.037 20.56ZM173.749 25.152C174.527 25.1627 175.114 25.008 175.509 24.688C175.914 24.3573 176.117 23.8773 176.117 23.248C176.117 22.6293 175.919 22.1707 175.525 21.872C175.13 21.5733 174.538 21.4187 173.749 21.408L171.557 21.376V25.12L173.749 25.152ZM187.72 21.616C188.317 21.7547 188.776 21.9947 189.096 22.336C189.426 22.6773 189.592 23.0933 189.592 23.584C189.592 24.0747 189.421 24.512 189.08 24.896C188.749 25.28 188.296 25.5787 187.72 25.792C187.144 25.9947 186.509 26.096 185.816 26.096C185.208 26.096 184.61 26.0107 184.024 25.84C183.437 25.6587 182.925 25.3973 182.488 25.056L182.872 24.208C183.256 24.496 183.704 24.72 184.216 24.88C184.728 25.04 185.245 25.12 185.768 25.12C186.546 25.12 187.181 24.976 187.672 24.688C188.173 24.3893 188.424 23.9893 188.424 23.488C188.424 23.04 188.221 22.6933 187.816 22.448C187.41 22.192 186.856 22.064 186.152 22.064H184.712V21.232H186.088C186.717 21.232 187.224 21.1147 187.608 20.88C187.992 20.6347 188.184 20.3093 188.184 19.904C188.184 19.456 187.965 19.104 187.528 18.848C187.101 18.592 186.541 18.464 185.848 18.464C184.941 18.464 184.045 18.6933 183.16 19.152L182.84 18.272C183.842 17.7493 184.882 17.488 185.96 17.488C186.6 17.488 187.176 17.584 187.688 17.776C188.21 17.9573 188.616 18.2187 188.904 18.56C189.202 18.9013 189.352 19.296 189.352 19.744C189.352 20.1707 189.202 20.5493 188.904 20.88C188.616 21.2107 188.221 21.456 187.72 21.616ZM195.067 17.52C196.165 17.52 197.008 17.7973 197.595 18.352C198.181 18.896 198.475 19.7067 198.475 20.784V26H197.387V24.688C197.131 25.1253 196.752 25.4667 196.251 25.712C195.76 25.9573 195.173 26.08 194.491 26.08C193.552 26.08 192.805 25.856 192.251 25.408C191.696 24.96 191.419 24.368 191.419 23.632C191.419 22.9173 191.675 22.3413 192.187 21.904C192.709 21.4667 193.536 21.248 194.667 21.248H197.339V20.736C197.339 20.0107 197.136 19.4613 196.731 19.088C196.325 18.704 195.733 18.512 194.955 18.512C194.421 18.512 193.909 18.6027 193.419 18.784C192.928 18.9547 192.507 19.1947 192.155 19.504L191.643 18.656C192.069 18.2933 192.581 18.016 193.179 17.824C193.776 17.6213 194.405 17.52 195.067 17.52ZM194.667 25.184C195.307 25.184 195.856 25.04 196.315 24.752C196.773 24.4533 197.115 24.0267 197.339 23.472V22.096H194.699C193.259 22.096 192.539 22.5973 192.539 23.6C192.539 24.0907 192.725 24.48 193.099 24.768C193.472 25.0453 193.995 25.184 194.667 25.184ZM204.555 22.256H202.635V26H201.499V17.584H202.635V21.28H204.571L207.531 17.584H208.763L205.451 21.664L209.003 26H207.659L204.555 22.256ZM213.535 17.52C214.634 17.52 215.477 17.7973 216.063 18.352C216.65 18.896 216.943 19.7067 216.943 20.784V26H215.855V24.688C215.599 25.1253 215.221 25.4667 214.719 25.712C214.229 25.9573 213.642 26.08 212.959 26.08C212.021 26.08 211.274 25.856 210.719 25.408C210.165 24.96 209.887 24.368 209.887 23.632C209.887 22.9173 210.143 22.3413 210.655 21.904C211.178 21.4667 212.005 21.248 213.135 21.248H215.807V20.736C215.807 20.0107 215.605 19.4613 215.199 19.088C214.794 18.704 214.202 18.512 213.423 18.512C212.89 18.512 212.378 18.6027 211.887 18.784C211.397 18.9547 210.975 19.1947 210.623 19.504L210.111 18.656C210.538 18.2933 211.05 18.016 211.647 17.824C212.245 17.6213 212.874 17.52 213.535 17.52ZM213.135 25.184C213.775 25.184 214.325 25.04 214.783 24.752C215.242 24.4533 215.583 24.0267 215.807 23.472V22.096H213.167C211.727 22.096 211.007 22.5973 211.007 23.6C211.007 24.0907 211.194 24.48 211.567 24.768C211.941 25.0453 212.463 25.184 213.135 25.184ZM223.892 21.616C224.489 21.7547 224.948 21.9947 225.268 22.336C225.598 22.6773 225.764 23.0933 225.764 23.584C225.764 24.0747 225.593 24.512 225.252 24.896C224.921 25.28 224.468 25.5787 223.892 25.792C223.316 25.9947 222.681 26.096 221.988 26.096C221.38 26.096 220.782 26.0107 220.196 25.84C219.609 25.6587 219.097 25.3973 218.66 25.056L219.044 24.208C219.428 24.496 219.876 24.72 220.388 24.88C220.9 25.04 221.417 25.12 221.94 25.12C222.718 25.12 223.353 24.976 223.844 24.688C224.345 24.3893 224.596 23.9893 224.596 23.488C224.596 23.04 224.393 22.6933 223.988 22.448C223.582 22.192 223.028 22.064 222.324 22.064H220.884V21.232H222.26C222.889 21.232 223.396 21.1147 223.78 20.88C224.164 20.6347 224.356 20.3093 224.356 19.904C224.356 19.456 224.137 19.104 223.7 18.848C223.273 18.592 222.713 18.464 222.02 18.464C221.113 18.464 220.217 18.6933 219.332 19.152L219.012 18.272C220.014 17.7493 221.054 17.488 222.132 17.488C222.772 17.488 223.348 17.584 223.86 17.776C224.382 17.9573 224.788 18.2187 225.076 18.56C225.374 18.9013 225.524 19.296 225.524 19.744C225.524 20.1707 225.374 20.5493 225.076 20.88C224.788 21.2107 224.393 21.456 223.892 21.616Z" fill="black"/>
<rect x="0.5" y="0.5" width="289" height="40" rx="19.5" stroke="#040404"/>
</svg>
